<svg width="24" height="21" viewBox="0 0 24 21" fill="none" xmlns="http://www.w3.org/2000/svg">
<path d="M22.2222 8.00011L20.3241 17.2846C20.0899 18.43 19.9728 19.0027 19.6672 19.4311C19.3976 19.8089 19.0265 20.1064 18.595 20.2909C18.1056 20.5001 17.5086 20.5001 16.3145 20.5001H7.68542C6.49137 20.5001 5.89434 20.5001 5.40499 20.2909C4.97346 20.1064 4.60243 19.8089 4.33287 19.4311C4.02719 19.0027 3.91011 18.43 3.67593 17.2846L1.77778 8.00011M0.5 8.00011H23.5M6.88889 11.7501V11.7626M17.1111 11.7501V11.7626M4.33333 8.00011L8.16667 0.500107M19.6667 8.00011L15.8333 0.500107" stroke="black" stroke-linecap="round" stroke-linejoin="round"/>
</svg>
