<svg width="120" height="30" viewBox="0 0 120 30" fill="none" xmlns="http://www.w3.org/2000/svg">
<path d="M0 5.98404V0H22.9604V5.98404H14.6757V29.5213H8.28466V5.98404H0Z" fill="black"/>
<path d="M27.0096 29.5213H20.3424L30.7574 0H36.9906L47.3662 29.5213H40.5807L38.5292 23.2979H29.1005L27.0096 29.5213ZM33.0456 11.5691L30.9547 17.8723H36.7145L34.6236 11.5691C34.308 10.5718 33.9529 9.41489 33.8346 8.69681C33.7162 9.375 33.4006 10.492 33.0456 11.5691Z" fill="black"/>
<path d="M53.3189 29.5213L42.3911 0H49.2161L54.7392 14.9202C55.4098 16.7553 55.9622 18.5904 56.5934 21.1436C57.3429 18.3112 57.8952 16.6755 58.5265 14.9202L63.9707 0H70.6378L59.9072 29.5213H53.3189Z" fill="black"/>
<path d="M72.7022 18.4308V0H79.0932V17.992C79.0932 21.7021 81.1052 23.7367 84.6953 23.7367C88.3247 23.7367 90.3762 21.6223 90.3762 17.992V0H96.7672V18.4308C96.7672 25.4521 92.0331 30 84.6953 30C77.3969 30 72.7022 25.492 72.7022 18.4308Z" fill="black"/>
<path d="M120 29.5213H101.458V0H120V5.98404H107.849V11.7686H118.619V17.4335H107.849V23.5372H120V29.5213Z" fill="black"/>
</svg>
