<svg width="20" height="20" viewBox="0 0 20 20" fill="none" xmlns="http://www.w3.org/2000/svg">
<circle cx="10" cy="5" r="4.5" stroke="black"/>
<path d="M10 12.5C14.0465 12.5 17.4232 14.4733 19.0664 15.8311C19.3715 16.0832 19.4135 16.13 19.4521 16.2119C19.4895 16.2912 19.5 16.3711 19.5 16.8281V18C19.5 18.4853 19.4988 18.7991 19.4678 19.0303C19.4386 19.2471 19.3916 19.3155 19.3535 19.3535C19.3155 19.3916 19.2471 19.4386 19.0303 19.4678C18.7991 19.4988 18.4853 19.5 18 19.5H2C1.51471 19.5 1.20095 19.4988 0.969727 19.4678C0.752857 19.4386 0.684546 19.3916 0.646484 19.3535C0.608422 19.3155 0.561384 19.2471 0.532227 19.0303C0.501182 18.7991 0.5 18.4853 0.5 18V16.8281C0.500005 16.3711 0.510515 16.2912 0.547852 16.2119C0.586457 16.13 0.628484 16.0832 0.933594 15.8311C2.57685 14.4733 5.95353 12.5 10 12.5Z" stroke="black"/>
</svg>
